<svg xmlns="http://www.w3.org/2000/svg" xmlns:xlink="http://www.w3.org/1999/xlink" width="98" height="98" viewBox="0 0 98 98">
  <defs>
    <linearGradient id="linear-gradient" x1="0.5" x2="0.5" y2="1" gradientUnits="objectBoundingBox">
      <stop offset="0" stop-color="#fba1e8"/>
      <stop offset="1" stop-color="#e95af9"/>
    </linearGradient>
  </defs>
  <g id="Group_77340" data-name="Group 77340" transform="translate(-947 -1717)">
    <rect id="Rectangle_16736" data-name="Rectangle 16736" width="98" height="98" rx="10" transform="translate(947 1717)" fill="#fbd7fb"/>
    <rect id="Rectangle_16737" data-name="Rectangle 16737" width="84" height="84" rx="10" transform="translate(954 1724)" fill="url(#linear-gradient)"/>
    <g id="coding" transform="translate(971.718 1734.25)">
      <path id="Path_136297" data-name="Path 136297" d="M139.516,441.617h-3.51V438.25H118.932v3.367h-3.51a1.423,1.423,0,1,0,0,2.846h24.093a1.423,1.423,0,1,0,0-2.846Z" transform="translate(-103.187 -389.213)" fill="#fff"/>
      <path id="Path_136298" data-name="Path 136298" d="M0,351.1a2.849,2.849,0,0,0,2.846,2.846H45.72a2.849,2.849,0,0,0,2.846-2.846V348.25H0Z" transform="translate(0 -307.75)" fill="#fff"/>
      <path id="Path_136299" data-name="Path 136299" d="M45.72,8.25H2.846A2.849,2.849,0,0,0,0,11.1V37.655H48.565V11.1A2.849,2.849,0,0,0,45.72,8.25ZM33.77,21.055a1.423,1.423,0,0,1-1.423,1.423H16.6a1.423,1.423,0,1,1,0-2.846H32.347A1.423,1.423,0,0,1,33.77,21.055ZM12.805,13.941h5.976a1.423,1.423,0,0,1,0,2.846H12.805a1.423,1.423,0,0,1,0-2.846ZM7.114,33.861a1.423,1.423,0,1,1,1.423-1.423A1.426,1.426,0,0,1,7.114,33.861Zm0-5.691a1.423,1.423,0,1,1,1.423-1.423A1.426,1.426,0,0,1,7.114,28.169Zm0-5.691a1.423,1.423,0,1,1,1.423-1.423A1.426,1.426,0,0,1,7.114,22.478Zm0-5.691a1.423,1.423,0,1,1,1.423-1.423A1.426,1.426,0,0,1,7.114,16.787ZM18.781,33.861H12.805a1.423,1.423,0,1,1,0-2.846h5.976a1.423,1.423,0,1,1,0,2.846Zm4.458-5.691H16.6a1.423,1.423,0,1,1,0-2.846h6.64a1.423,1.423,0,1,1,0,2.846Zm9.817,0H28.14a1.423,1.423,0,0,1,0-2.846h4.917a1.423,1.423,0,1,1,0,2.846Zm8.395,0H38.036a1.423,1.423,0,1,1,0-2.846h3.415a1.423,1.423,0,0,1,0,2.846Zm0-5.691H38.036a1.423,1.423,0,1,1,0-2.846h3.415a1.423,1.423,0,0,1,0,2.846Z" fill="#fff"/>
    </g>
  </g>
</svg>
